<svg width="1356" height="674" viewBox="0 0 1356 674" class="keymap" xmlns="http://www.w3.org/2000/svg" xmlns:xlink="http://www.w3.org/1999/xlink">
<style>/* inherit to force styles through use tags */
svg path {
    fill: inherit;
}

/* font and background color specifications */
svg.keymap {
    font-family: SFMono-Regular,Consolas,Liberation Mono,Menlo,monospace;
    font-size: 14px;
    font-kerning: normal;
    text-rendering: optimizeLegibility;
    fill: #24292e;
}

/* default key styling */
rect.key {
    fill: #f6f8fa;
}

rect.key, rect.combo {
    stroke: #c9cccf;
    stroke-width: 1;
}

/* default key side styling, only used is draw_key_sides is set */
rect.side {
    filter: brightness(90%);
}

/* color accent for combo boxes */
rect.combo, rect.combo-separate {
    fill: #cdf;
}

/* color accent for held keys */
rect.held, rect.combo.held {
    fill: #fdd;
}

/* color accent for ghost (optional) keys */
rect.ghost, rect.combo.ghost {
    stroke-dasharray: 4, 4;
    stroke-width: 2;
}

text {
    text-anchor: middle;
    dominant-baseline: middle;
}

/* styling for layer labels */
text.label {
    font-weight: bold;
    text-anchor: start;
    stroke: white;
    stroke-width: 4;
    paint-order: stroke;
}

/* styling for optional footer */
text.footer {
    text-anchor: end;
    dominant-baseline: auto;
    stroke: white;
    stroke-width: 4;
    paint-order: stroke;
}

/* styling for combo tap, and key non-tap label text */
text.combo, text.hold, text.shifted, text.left, text.right {
    font-size: 11px;
}

text.hold {
    text-anchor: middle;
    dominant-baseline: auto;
}

text.shifted {
    text-anchor: middle;
    dominant-baseline: hanging;
}

text.left {
    text-anchor: start;
}

text.right {
    text-anchor: end;
}

text.layer-activator {
    text-decoration: underline;
}

/* styling for hold/shifted label text in combo box */
text.combo.hold, text.combo.shifted, text.combo.left, text.combo.right {
    font-size: 8px;
}

/* lighter symbol for transparent keys */
text.trans {
    fill: #7b7e81;
}

/* styling for combo dendrons */
path.combo {
    stroke-width: 1;
    stroke: gray;
    fill: none;
}

/* Start Tabler Icons Cleanup */
/* cannot use height/width with glyphs */
.icon-tabler > path {
    fill: inherit;
    stroke: inherit;
    stroke-width: 2;
}
/* hide tabler's default box */
.icon-tabler > path[stroke="none"][fill="none"] {
    visibility: hidden;
}
/* End Tabler Icons Cleanup */

svg.keymap {
  font-family: "Helvetica Neue", Helvetica, Arial, sans-serif;
}
</style>
<g transform="translate(30, 0)" class="layer-All Layers">
<text x="0" y="28" class="label" id="All-Layers">All Layers:</text>
<g transform="translate(0, 56)">
<g transform="translate(45, 54)" class="key keypos-0">
<rect rx="6" ry="6" x="-43" y="-34" width="86" height="68" class="key"/>
<text x="0" y="0" class="key tap">ESC</text>
<text x="0" y="32" class="key hold">F1</text>
<text x="0" y="-32" class="key shifted">=</text>
</g>
<g transform="translate(126, 54)" class="key keypos-1">
<rect rx="6" ry="6" x="-34" y="-34" width="68" height="68" class="key"/>
<text x="0" y="0" class="key tap">1</text>
<text x="0" y="32" class="key hold">F2</text>
<text x="0" y="-32" class="key shifted">1</text>
</g>
<g transform="translate(198, 36)" class="key keypos-2">
<rect rx="6" ry="6" x="-34" y="-34" width="68" height="68" class="key"/>
<text x="0" y="0" class="key tap">2</text>
<text x="0" y="32" class="key hold">F3</text>
<text x="0" y="-32" class="key shifted">2</text>
</g>
<g transform="translate(270, 36)" class="key keypos-3">
<rect rx="6" ry="6" x="-34" y="-34" width="68" height="68" class="key"/>
<text x="0" y="0" class="key tap">3</text>
<text x="0" y="32" class="key hold">F4</text>
<text x="0" y="-32" class="key shifted">3</text>
</g>
<g transform="translate(342, 36)" class="key keypos-4">
<rect rx="6" ry="6" x="-34" y="-34" width="68" height="68" class="key"/>
<text x="0" y="0" class="key tap">4</text>
<text x="0" y="32" class="key hold">F5</text>
<text x="0" y="-32" class="key shifted">4</text>
</g>
<g transform="translate(414, 36)" class="key keypos-5">
<rect rx="6" ry="6" x="-34" y="-34" width="68" height="68" class="key"/>
<text x="0" y="0" class="key tap">5</text>
<text x="0" y="32" class="key hold">F6</text>
<text x="0" y="-32" class="key shifted">5</text>
</g>
<g transform="translate(486, 36)" class="key keypos-6">
<rect rx="6" ry="6" x="-34" y="-34" width="68" height="68" class="key"/>
<text x="0" y="0" class="key tap">
<tspan x="0" dy="-1.0em" style="font-size: 62%">NEO_LAE…</tspan><tspan x="0" dy="1.0em" style="font-size: 62%">[toggle</tspan><tspan x="0" dy="1.0em" style="font-size: 62%">]</tspan>
</text>
<text x="0" y="32" class="key hold"><tspan style="font-size: 62%">NEO_LAE…</tspan></text>
</g>
<g transform="translate(810, 36)" class="key keypos-7">
<rect rx="6" ry="6" x="-34" y="-34" width="68" height="68" class="key"/>
<text x="0" y="0" class="key tap">mod</text>
<text x="0" y="32" class="key hold">mod</text>
<text x="0" y="-32" class="key shifted">mod</text>
</g>
<g transform="translate(882, 36)" class="key keypos-8">
<rect rx="6" ry="6" x="-34" y="-34" width="68" height="68" class="key"/>
<text x="0" y="0" class="key tap">6</text>
<text x="0" y="32" class="key hold">F7</text>
<text x="0" y="-32" class="key shifted">6</text>
</g>
<g transform="translate(954, 36)" class="key keypos-9">
<rect rx="6" ry="6" x="-34" y="-34" width="68" height="68" class="key"/>
<text x="0" y="0" class="key tap">7</text>
<text x="0" y="32" class="key hold">F8</text>
<text x="0" y="-32" class="key shifted"><tspan style="font-size: 83%">KP NUM</tspan></text>
</g>
<g transform="translate(1026, 36)" class="key keypos-10">
<rect rx="6" ry="6" x="-34" y="-34" width="68" height="68" class="key"/>
<text x="0" y="0" class="key tap">8</text>
<text x="0" y="32" class="key hold">F9</text>
<text x="0" y="-32" class="key shifted"><tspan style="font-size: 62%">KP EQUAL</tspan></text>
</g>
<g transform="translate(1098, 36)" class="key keypos-11">
<rect rx="6" ry="6" x="-34" y="-34" width="68" height="68" class="key"/>
<text x="0" y="0" class="key tap">9</text>
<text x="0" y="32" class="key hold">F10</text>
<text x="0" y="-32" class="key shifted"><tspan style="font-size: 62%">KP DIVI…</tspan></text>
</g>
<g transform="translate(1170, 54)" class="key keypos-12">
<rect rx="6" ry="6" x="-34" y="-34" width="68" height="68" class="key"/>
<text x="0" y="0" class="key tap">0</text>
<text x="0" y="32" class="key hold">F11</text>
<text x="0" y="-32" class="key shifted"><tspan style="font-size: 62%">KP MULT…</tspan></text>
</g>
<g transform="translate(1251, 54)" class="key keypos-13">
<rect rx="6" ry="6" x="-43" y="-34" width="86" height="68" class="key"/>
<text x="0" y="0" class="key tap">-</text>
<text x="0" y="32" class="key hold">F12</text>
<text x="0" y="-32" class="key shifted">-</text>
</g>
<g transform="translate(45, 126)" class="key keypos-14">
<rect rx="6" ry="6" x="-43" y="-34" width="86" height="68" class="key"/>
<text x="0" y="0" class="key tap">TAB</text>
<text x="0" y="-32" class="key shifted">TAB</text>
</g>
<g transform="translate(126, 126)" class="key keypos-15">
<rect rx="6" ry="6" x="-34" y="-34" width="68" height="68" class="key"/>
<text x="0" y="0" class="key tap">X</text>
<text x="0" y="32" class="key hold"><tspan style="font-size: 71%">PAGE UP</tspan></text>
<text x="0" y="-32" class="key shifted">Q</text>
<text x="-32" y="0" class="key left">X</text>
</g>
<g transform="translate(198, 108)" class="key keypos-16">
<rect rx="6" ry="6" x="-34" y="-34" width="68" height="68" class="key"/>
<text x="0" y="0" class="key tap">V</text>
<text x="0" y="32" class="key hold"><tspan style="font-size: 62%">BACKSPA…</tspan></text>
<text x="0" y="-32" class="key shifted">_</text>
<text x="-32" y="0" class="key left">V</text>
</g>
<g transform="translate(270, 108)" class="key keypos-17">
<rect rx="6" ry="6" x="-34" y="-34" width="68" height="68" class="key"/>
<text x="0" y="0" class="key tap">L</text>
<text x="0" y="32" class="key hold">UP</text>
<text x="0" y="-32" class="key shifted">[</text>
<text x="-32" y="0" class="key left">Sft+V</text>
</g>
<g transform="translate(342, 108)" class="key keypos-18">
<rect rx="6" ry="6" x="-34" y="-34" width="68" height="68" class="key"/>
<text x="0" y="0" class="key tap">C</text>
<text x="0" y="-32" class="key shifted">]</text>
<text x="-32" y="0" class="key left">C</text>
</g>
<g transform="translate(414, 108)" class="key keypos-19">
<rect rx="6" ry="6" x="-34" y="-34" width="68" height="68" class="key"/>
<text x="0" y="0" class="key tap">W</text>
<text x="0" y="32" class="key hold"><tspan style="font-size: 62%">PAGE DO…</tspan></text>
<text x="0" y="-32" class="key shifted">^</text>
</g>
<g transform="translate(486, 108)" class="key keypos-20">
<rect rx="6" ry="6" x="-34" y="-34" width="68" height="68" class="key"/>
<text x="0" y="-32" class="key shifted">|</text>
</g>
<g transform="translate(810, 108)" class="key keypos-21">
<rect rx="6" ry="6" x="-34" y="-34" width="68" height="68" class="key"/>
</g>
<g transform="translate(882, 108)" class="key keypos-22">
<rect rx="6" ry="6" x="-34" y="-34" width="68" height="68" class="key"/>
<text x="0" y="0" class="key tap">K</text>
<text x="0" y="-32" class="key shifted">!</text>
<text x="-32" y="0" class="key left">B</text>
</g>
<g transform="translate(954, 108)" class="key keypos-23">
<rect rx="6" ry="6" x="-34" y="-34" width="68" height="68" class="key"/>
<text x="0" y="0" class="key tap">H</text>
<text x="0" y="32" class="key hold">KP 7</text>
<text x="0" y="-32" class="key shifted">&lt;</text>
<text x="-32" y="0" class="key left">Ctl+D</text>
</g>
<g transform="translate(1026, 108)" class="key keypos-24">
<rect rx="6" ry="6" x="-34" y="-34" width="68" height="68" class="key"/>
<text x="0" y="0" class="key tap">G</text>
<text x="0" y="32" class="key hold">KP 8</text>
<text x="0" y="-32" class="key shifted">&gt;</text>
<text x="-32" y="0" class="key left">Ctl+U</text>
</g>
<g transform="translate(1098, 108)" class="key keypos-25">
<rect rx="6" ry="6" x="-34" y="-34" width="68" height="68" class="key"/>
<text x="0" y="0" class="key tap">F</text>
<text x="0" y="32" class="key hold">KP 9</text>
<text x="0" y="-32" class="key shifted">=</text>
<text x="-32" y="0" class="key left">W</text>
</g>
<g transform="translate(1170, 126)" class="key keypos-26">
<rect rx="6" ry="6" x="-34" y="-34" width="68" height="68" class="key"/>
<text x="0" y="0" class="key tap">Q</text>
<text x="0" y="-32" class="key shifted">&amp;</text>
</g>
<g transform="translate(1251, 126)" class="key keypos-27">
<rect rx="6" ry="6" x="-43" y="-34" width="86" height="68" class="key"/>
<text x="0" y="0" class="key tap">Alt+S</text>
<text x="0" y="-32" class="key shifted">\</text>
</g>
<g transform="translate(45, 198)" class="key keypos-28">
<rect rx="6" ry="6" x="-43" y="-34" width="86" height="68" class="key"/>
<text x="0" y="0" class="key tap"><tspan style="font-size: 62%">NEO_LAE…</tspan></text>
</g>
<g transform="translate(126, 198)" class="key keypos-29">
<rect rx="6" ry="6" x="-34" y="-34" width="68" height="68" class="key"/>
<text x="0" y="0" class="key tap">
<tspan x="0" dy="-1.0em">U</tspan><tspan x="0" dy="1.0em">[LCtl</tspan><tspan x="0" dy="1.0em">]</tspan>
</text>
<text x="0" y="32" class="key hold">HOME</text>
<text x="0" y="-32" class="key shifted">\</text>
</g>
<g transform="translate(198, 180)" class="key keypos-30">
<rect rx="6" ry="6" x="-34" y="-34" width="68" height="68" class="key"/>
<text x="0" y="0" class="key tap">
<tspan x="0" dy="-1.0em">I</tspan><tspan x="0" dy="1.0em">[LAlt</tspan><tspan x="0" dy="1.0em">]</tspan>
</text>
<text x="0" y="32" class="key hold">LEFT</text>
<text x="0" y="-32" class="key shifted">/</text>
</g>
<g transform="translate(270, 180)" class="key keypos-31">
<rect rx="6" ry="6" x="-34" y="-34" width="68" height="68" class="key"/>
<text x="0" y="0" class="key tap">
<tspan x="0" dy="-1.0em">A</tspan><tspan x="0" dy="1.0em">[LCmd</tspan><tspan x="0" dy="1.0em">]</tspan>
</text>
<text x="0" y="32" class="key hold">DOWN</text>
<text x="0" y="-32" class="key shifted">{</text>
</g>
<g transform="translate(342, 180)" class="key keypos-32">
<rect rx="6" ry="6" x="-34" y="-34" width="68" height="68" class="key"/>
<text x="0" y="0" class="key tap">
<tspan x="0" dy="-1.0em">E</tspan><tspan x="0" dy="1.0em">[LSft</tspan><tspan x="0" dy="1.0em">]</tspan>
</text>
<text x="0" y="32" class="key hold">RIGHT</text>
<text x="0" y="-32" class="key shifted">}</text>
</g>
<g transform="translate(414, 180)" class="key keypos-33">
<rect rx="6" ry="6" x="-34" y="-34" width="68" height="68" class="key"/>
<text x="0" y="0" class="key tap">
<tspan x="0" dy="-0.5em">O</tspan><tspan x="0" dy="1.0em">[DE]</tspan>
</text>
<text x="0" y="32" class="key hold">END</text>
<text x="0" y="-32" class="key shifted">*</text>
</g>
<g transform="translate(486, 180)" class="key keypos-34">
<rect rx="6" ry="6" x="-34" y="-34" width="68" height="68" class="key"/>
<text x="0" y="-32" class="key shifted">~</text>
</g>
<g transform="translate(508, 360) rotate(15.0)" class="key keypos-35">
<rect rx="6" ry="6" x="-34" y="-34" width="68" height="68" class="key"/>
<text x="0" y="0" class="key tap">LCTRL</text>
<text x="0" y="-32" class="key shifted">LCTRL</text>
</g>
<g transform="translate(577, 379) rotate(15.0)" class="key keypos-36">
<rect rx="6" ry="6" x="-34" y="-34" width="68" height="68" class="key"/>
<text x="0" y="0" class="key tap">LALT</text>
<text x="0" y="-32" class="key shifted">LALT</text>
</g>
<g transform="translate(719, 379) rotate(-15.0)" class="key keypos-37">
<rect rx="6" ry="6" x="-34" y="-34" width="68" height="68" class="key"/>
<text x="0" y="0" class="key tap">
<tspan x="0" dy="-0.0em">LEFT</tspan><tspan x="0" dy="1.0em">ALT</tspan>
</text>
<text x="0" y="-32" class="key shifted">LGUI</text>
</g>
<g transform="translate(788, 360) rotate(-15.0)" class="key keypos-38">
<rect rx="6" ry="6" x="-34" y="-34" width="68" height="68" class="key"/>
<text x="0" y="0" class="key tap">RCTRL</text>
<text x="0" y="-32" class="key shifted">RCTRL</text>
</g>
<g transform="translate(810, 180)" class="key keypos-39">
<rect rx="6" ry="6" x="-34" y="-34" width="68" height="68" class="key"/>
</g>
<g transform="translate(882, 180)" class="key keypos-40">
<rect rx="6" ry="6" x="-34" y="-34" width="68" height="68" class="key"/>
<text x="0" y="0" class="key tap">S</text>
<text x="0" y="-32" class="key shifted">?</text>
<text x="-32" y="0" class="key left">0</text>
<text x="32" y="0" class="key right">H</text>
</g>
<g transform="translate(954, 180)" class="key keypos-41">
<rect rx="6" ry="6" x="-34" y="-34" width="68" height="68" class="key"/>
<text x="0" y="0" class="key tap">
<tspan x="0" dy="-1.0em">N</tspan><tspan x="0" dy="1.0em">[RSft</tspan><tspan x="0" dy="1.0em">]</tspan>
</text>
<text x="0" y="32" class="key hold">KP 4</text>
<text x="0" y="-32" class="key shifted">(</text>
<text x="-32" y="0" class="key left">H</text>
<text x="32" y="0" class="key right">J</text>
</g>
<g transform="translate(1026, 180)" class="key keypos-42">
<rect rx="6" ry="6" x="-34" y="-34" width="68" height="68" class="key"/>
<text x="0" y="0" class="key tap">
<tspan x="0" dy="-1.0em">R</tspan><tspan x="0" dy="1.0em">[RCmd</tspan><tspan x="0" dy="1.0em">]</tspan>
</text>
<text x="0" y="32" class="key hold">KP 5</text>
<text x="0" y="-32" class="key shifted">)</text>
<text x="-32" y="0" class="key left">J</text>
<text x="32" y="0" class="key right">K</text>
</g>
<g transform="translate(1098, 180)" class="key keypos-43">
<rect rx="6" ry="6" x="-34" y="-34" width="68" height="68" class="key"/>
<text x="0" y="0" class="key tap">
<tspan x="0" dy="-1.0em">T</tspan><tspan x="0" dy="1.0em">[RAlt</tspan><tspan x="0" dy="1.0em">]</tspan>
</text>
<text x="0" y="32" class="key hold">KP 6</text>
<text x="0" y="-32" class="key shifted">-</text>
<text x="-32" y="0" class="key left">K</text>
<text x="32" y="0" class="key right">L</text>
</g>
<g transform="translate(1170, 198)" class="key keypos-44">
<rect rx="6" ry="6" x="-34" y="-34" width="68" height="68" class="key"/>
<text x="0" y="0" class="key tap">
<tspan x="0" dy="-1.0em">D</tspan><tspan x="0" dy="1.0em">[RCtl</tspan><tspan x="0" dy="1.0em">]</tspan>
</text>
<text x="0" y="32" class="key hold">,</text>
<text x="0" y="-32" class="key shifted">:</text>
<text x="-32" y="0" class="key left">L</text>
</g>
<g transform="translate(1251, 198)" class="key keypos-45">
<rect rx="6" ry="6" x="-43" y="-34" width="86" height="68" class="key"/>
<text x="0" y="0" class="key tap">Y</text>
<text x="0" y="32" class="key hold">.</text>
<text x="0" y="-32" class="key shifted">@</text>
<text x="-41" y="0" class="key left">$</text>
</g>
<g transform="translate(45, 270)" class="key keypos-46">
<rect rx="6" ry="6" x="-43" y="-34" width="86" height="68" class="key"/>
<text x="0" y="0" class="key tap">LSHFT</text>
<text x="0" y="-32" class="key shifted">LSHFT</text>
</g>
<g transform="translate(126, 270)" class="key keypos-47">
<rect rx="6" ry="6" x="-34" y="-34" width="68" height="68" class="key"/>
<text x="0" y="0" class="key tap">ü</text>
<text x="0" y="-32" class="key shifted">#</text>
<text x="-32" y="0" class="key left">Y</text>
</g>
<g transform="translate(198, 252)" class="key keypos-48">
<rect rx="6" ry="6" x="-34" y="-34" width="68" height="68" class="key"/>
<text x="0" y="0" class="key tap">ö</text>
<text x="0" y="32" class="key hold">TAB</text>
<text x="0" y="-32" class="key shifted">$</text>
<text x="-32" y="0" class="key left">D</text>
</g>
<g transform="translate(270, 252)" class="key keypos-49">
<rect rx="6" ry="6" x="-34" y="-34" width="68" height="68" class="key"/>
<text x="0" y="0" class="key tap">ä</text>
<text x="0" y="-32" class="key shifted">~</text>
<text x="-32" y="0" class="key left">P</text>
</g>
<g transform="translate(342, 252)" class="key keypos-50">
<rect rx="6" ry="6" x="-34" y="-34" width="68" height="68" class="key"/>
<text x="0" y="0" class="key tap">P</text>
<text x="0" y="32" class="key hold">ENTER</text>
<text x="0" y="-32" class="key shifted">|</text>
<text x="-32" y="0" class="key left">U</text>
</g>
<g transform="translate(414, 252)" class="key keypos-51">
<rect rx="6" ry="6" x="-34" y="-34" width="68" height="68" class="key"/>
<text x="0" y="0" class="key tap">Z</text>
<text x="0" y="32" class="key hold">UNDO</text>
<text x="0" y="-32" class="key shifted">`</text>
<text x="-32" y="0" class="key left">.</text>
</g>
<g transform="translate(559, 448) rotate(15.0)" class="key keypos-52">
<rect rx="6" ry="6" x="-34" y="-34" width="68" height="68" class="key"/>
<text x="0" y="0" class="key tap"><tspan style="font-size: 62%">NEO_LAY…</tspan></text>
</g>
<g transform="translate(737, 448) rotate(-15.0)" class="key keypos-53">
<rect rx="6" ry="6" x="-34" y="-34" width="68" height="68" class="key"/>
<text x="0" y="0" class="key tap"><tspan style="font-size: 62%">NEO_LAY…</tspan></text>
</g>
<g transform="translate(882, 252)" class="key keypos-54">
<rect rx="6" ry="6" x="-34" y="-34" width="68" height="68" class="key"/>
<text x="0" y="0" class="key tap">B</text>
<text x="0" y="32" class="key hold">:</text>
<text x="0" y="-32" class="key shifted">+</text>
</g>
<g transform="translate(954, 252)" class="key keypos-55">
<rect rx="6" ry="6" x="-34" y="-34" width="68" height="68" class="key"/>
<text x="0" y="0" class="key tap">M</text>
<text x="0" y="32" class="key hold">KP 1</text>
<text x="0" y="-32" class="key shifted">%</text>
<text x="-32" y="0" class="key left">gg</text>
</g>
<g transform="translate(1026, 252)" class="key keypos-56">
<rect rx="6" ry="6" x="-34" y="-34" width="68" height="68" class="key"/>
<text x="0" y="0" class="key tap">,</text>
<text x="0" y="32" class="key hold">KP 2</text>
<text x="0" y="-32" class="key shifted">&quot;</text>
<text x="-32" y="0" class="key left">Sft+G</text>
</g>
<g transform="translate(1098, 252)" class="key keypos-57">
<rect rx="6" ry="6" x="-34" y="-34" width="68" height="68" class="key"/>
<text x="0" y="0" class="key tap">.</text>
<text x="0" y="32" class="key hold">KP 3</text>
<text x="0" y="-32" class="key shifted">&#x27;</text>
<text x="-32" y="0" class="key left">/</text>
</g>
<g transform="translate(1170, 270)" class="key keypos-58">
<rect rx="6" ry="6" x="-34" y="-34" width="68" height="68" class="key"/>
<text x="0" y="0" class="key tap">J</text>
<text x="0" y="32" class="key hold">;</text>
<text x="0" y="-32" class="key shifted">;</text>
<text x="-32" y="0" class="key left">N</text>
</g>
<g transform="translate(1251, 270)" class="key keypos-59">
<rect rx="6" ry="6" x="-43" y="-34" width="86" height="68" class="key"/>
<text x="0" y="0" class="key tap">RSHFT</text>
<text x="0" y="-32" class="key shifted">RSHFT</text>
</g>
<g transform="translate(45, 342)" class="key keypos-60">
<rect rx="6" ry="6" x="-43" y="-34" width="86" height="68" class="key"/>
<text x="0" y="0" class="key tap"><tspan style="font-size: 62%">NEO_LAY…</tspan></text>
<text x="0" y="-32" class="key shifted"><tspan style="font-size: 62%">NEO_LAY…</tspan></text>
</g>
<g transform="translate(126, 342)" class="key keypos-61">
<rect rx="6" ry="6" x="-34" y="-34" width="68" height="68" class="key"/>
<text x="0" y="0" class="key tap">@</text>
<text x="0" y="-32" class="key shifted">`</text>
</g>
<g transform="translate(198, 324)" class="key keypos-62">
<rect rx="6" ry="6" x="-34" y="-34" width="68" height="68" class="key"/>
<text x="0" y="-32" class="key shifted">CAPS</text>
</g>
<g transform="translate(270, 324)" class="key keypos-63">
<rect rx="6" ry="6" x="-34" y="-34" width="68" height="68" class="key"/>
<text x="0" y="0" class="key tap">LEFT</text>
<text x="0" y="-32" class="key shifted">LEFT</text>
</g>
<g transform="translate(342, 324)" class="key keypos-64">
<rect rx="6" ry="6" x="-34" y="-34" width="68" height="68" class="key"/>
<text x="0" y="0" class="key tap">RIGHT</text>
<text x="0" y="-32" class="key shifted">RIGHT</text>
</g>
<g transform="translate(410, 446) rotate(15.0)" class="key keypos-65">
<rect rx="6" ry="6" x="-34" y="-70" width="68" height="140" class="key"/>
<text x="0" y="0" class="key tap">
<tspan x="0" dy="-0.0em">BSPC</tspan><tspan x="0" dy="1.0em">[VIM]</tspan>
</text>
<text x="0" y="-68" class="key shifted">BSPC</text>
</g>
<g transform="translate(480, 464) rotate(15.0)" class="key keypos-66">
<rect rx="6" ry="6" x="-34" y="-70" width="68" height="140" class="key"/>
<text x="0" y="0" class="key tap">
<tspan x="0" dy="-0.0em">LEFT</tspan><tspan x="0" dy="1.0em">GUI</tspan>
</text>
<text x="0" y="-68" class="key shifted">DEL</text>
</g>
<g transform="translate(540, 518) rotate(15.0)" class="key keypos-67">
<rect rx="6" ry="6" x="-34" y="-34" width="68" height="68" class="key"/>
<text x="0" y="0" class="key tap"><tspan style="font-size: 62%">NEO_LAE…</tspan></text>
</g>
<g transform="translate(756, 518) rotate(-15.0)" class="key keypos-68">
<rect rx="6" ry="6" x="-34" y="-34" width="68" height="68" class="key"/>
<text x="0" y="0" class="key tap"><tspan style="font-size: 62%">NEO_LAE…</tspan></text>
</g>
<g transform="translate(816, 464) rotate(-15.0)" class="key keypos-69">
<rect rx="6" ry="6" x="-34" y="-70" width="68" height="140" class="key"/>
<text x="0" y="0" class="key tap">ENTER</text>
<text x="0" y="-68" class="key shifted">ENTER</text>
</g>
<g transform="translate(886, 446) rotate(-15.0)" class="key keypos-70">
<rect rx="6" ry="6" x="-34" y="-70" width="68" height="140" class="key"/>
<text x="0" y="0" class="key tap">
<tspan x="0" dy="-0.5em">SPACE</tspan><tspan x="0" dy="1.0em">[VIM]</tspan>
</text>
<text x="0" y="68" class="key hold">KP 0</text>
<text x="0" y="-68" class="key shifted">KP 0</text>
</g>
<g transform="translate(954, 324)" class="key keypos-71">
<rect rx="6" ry="6" x="-34" y="-34" width="68" height="68" class="key"/>
<text x="0" y="0" class="key tap">UP</text>
<text x="0" y="-32" class="key shifted">UP</text>
</g>
<g transform="translate(1026, 324)" class="key keypos-72">
<rect rx="6" ry="6" x="-34" y="-34" width="68" height="68" class="key"/>
<text x="0" y="0" class="key tap">DOWN</text>
<text x="0" y="-32" class="key shifted">DOWN</text>
</g>
<g transform="translate(1098, 324)" class="key keypos-73">
<rect rx="6" ry="6" x="-34" y="-34" width="68" height="68" class="key"/>
<text x="0" y="0" class="key tap">-</text>
<text x="0" y="-32" class="key shifted"><tspan style="font-size: 83%">KP DOT</tspan></text>
</g>
<g transform="translate(1170, 342)" class="key keypos-74">
<rect rx="6" ry="6" x="-34" y="-34" width="68" height="68" class="key"/>
<text x="0" y="0" class="key tap">+</text>
<text x="0" y="-32" class="key shifted">]</text>
</g>
<g transform="translate(1251, 342)" class="key keypos-75">
<rect rx="6" ry="6" x="-43" y="-34" width="86" height="68" class="key"/>
<text x="0" y="0" class="key tap"><tspan style="font-size: 62%">NEO_LAY…</tspan></text>
<text x="0" y="-32" class="key shifted"><tspan style="font-size: 62%">NEO_LAY…</tspan></text>
</g>
</g>
</g>
<text x="1326.0" y="646.0" class="footer">Base=center | Sym=top | Nav=bottom | Vim=left | DE=right</text></svg>
